0
SECTION
2
HEADER
9
$ACADVER
1
AC1009
9
$INSBASE
10
0.0
20
0.0
30
0.0
9
$EXTMIN
10
0.0
20
0.0
30
0.0
9
$EXTMAX
10
420.0
20
297.0
30
0.0
9
$LIMMIN
10
0.0
20
0.0
9
$LIMMAX
10
420.0
20
297.0
9
$LUNITS
70
2
9
$INSUNITS
70
4
0
ENDSEC
0
SECTION
2
TABLES
0
TABLE
2
LTYPE
70
1
0
LTYPE
2
CONTINUOUS
70
0
3
Solid line
72
65
73
0
40
0.0
0
ENDTAB
0
TABLE
2
LAYER
70
12
0
LAYER
2
BORDER
70
0
62
7
6
CONTINUOUS
0
LAYER
2
TITLE
70
0
62
7
6
CONTINUOUS
0
LAYER
2
COMPONENT
70
0
62
5
6
CONTINUOUS
0
LAYER
2
TERMINAL
70
0
62
7
6
CONTINUOUS
0
LAYER
2
WIRE_PWR
70
0
62
1
6
CONTINUOUS
0
LAYER
2
WIRE_SIG
70
0
62
3
6
CONTINUOUS
0
LAYER
2
WIRE_DIFF
70
0
62
4
6
CONTINUOUS
0
LAYER
2
WIRE_TRIG
70
0
62
6
6
CONTINUOUS
0
LAYER
2
TEXT
70
0
62
7
6
CONTINUOUS
0
LAYER
2
TEXT_SMALL
70
0
62
8
6
CONTINUOUS
0
LAYER
2
NOTE
70
0
62
2
6
CONTINUOUS
0
LAYER
2
DIM
70
0
62
8
6
CONTINUOUS
0
ENDTAB
0
TABLE
2
STYLE
70
1
0
STYLE
2
STANDARD
70
0
40
0.0
41
1.0
50
0.0
71
0
42
2.5
3
txt
4

0
ENDTAB
0
ENDSEC
0
SECTION
2
ENTITIES
0
LINE
8
BORDER
10
10.000
20
10.000
30
0.0
11
410.000
21
10.000
31
0.0
0
LINE
8
BORDER
10
410.000
20
10.000
30
0.0
11
410.000
21
287.000
31
0.0
0
LINE
8
BORDER
10
410.000
20
287.000
30
0.0
11
10.000
21
287.000
31
0.0
0
LINE
8
BORDER
10
10.000
20
287.000
30
0.0
11
10.000
21
10.000
31
0.0
0
LINE
8
BORDER
10
12.000
20
12.000
30
0.0
11
408.000
21
12.000
31
0.0
0
LINE
8
BORDER
10
408.000
20
12.000
30
0.0
11
408.000
21
285.000
31
0.0
0
LINE
8
BORDER
10
408.000
20
285.000
30
0.0
11
12.000
21
285.000
31
0.0
0
LINE
8
BORDER
10
12.000
20
285.000
30
0.0
11
12.000
21
12.000
31
0.0
0
LINE
8
TITLE
10
250.000
20
12.000
30
0.0
11
408.000
21
12.000
31
0.0
0
LINE
8
TITLE
10
408.000
20
12.000
30
0.0
11
408.000
21
56.000
31
0.0
0
LINE
8
TITLE
10
408.000
20
56.000
30
0.0
11
250.000
21
56.000
31
0.0
0
LINE
8
TITLE
10
250.000
20
56.000
30
0.0
11
250.000
21
12.000
31
0.0
0
LINE
8
TITLE
10
250.000
20
23.000
30
0.0
11
408.000
21
23.000
31
0.0
0
LINE
8
TITLE
10
250.000
20
34.000
30
0.0
11
408.000
21
34.000
31
0.0
0
LINE
8
TITLE
10
250.000
20
45.000
30
0.0
11
408.000
21
45.000
31
0.0
0
LINE
8
TITLE
10
350.000
20
12.000
30
0.0
11
350.000
21
45.000
31
0.0
0
TEXT
8
TITLE
10
253.000
20
49.000
30
0.0
40
3.600
1
LINE SCAN INSPECTION  /  1-AXIS ENCODER TRIGGER
0
TEXT
8
TITLE
10
253.000
20
38.000
30
0.0
40
3.200
1
SHEET 1 : SYSTEM INTERCONNECTION
0
TEXT
8
TEXT_SMALL
10
253.000
20
28.000
30
0.0
40
2.400
1
PROJECT : SEQApp
0
TEXT
8
TEXT_SMALL
10
253.000
20
17.000
30
0.0
40
2.400
1
DRAWN   : (   )    CHK : (   )
0
TEXT
8
TEXT_SMALL
10
353.000
20
28.000
30
0.0
40
2.400
1
SHEET 1 OF 3
0
TEXT
8
TEXT_SMALL
10
353.000
20
17.000
30
0.0
40
2.400
1
Rev.2   SIZE A3   DATE:(      )
0
LINE
8
COMPONENT
10
22.000
20
232.000
30
0.0
11
96.000
21
232.000
31
0.0
0
LINE
8
COMPONENT
10
96.000
20
232.000
30
0.0
11
96.000
21
272.000
31
0.0
0
LINE
8
COMPONENT
10
96.000
20
272.000
30
0.0
11
22.000
21
272.000
31
0.0
0
LINE
8
COMPONENT
10
22.000
20
272.000
30
0.0
11
22.000
21
232.000
31
0.0
0
LINE
8
COMPONENT
10
22.000
20
265.000
30
0.0
11
96.000
21
265.000
31
0.0
0
TEXT
8
TEXT
10
59.000
20
267.000
30
0.0
40
3.000
1
INDUSTRIAL PC
72
1
73
1
11
59.000
21
267.000
31
0.0
0
TEXT
8
TEXT_SMALL
10
59.000
20
259.000
30
0.0
40
2.400
1
SEQApp + AXL library
72
1
73
1
11
59.000
21
259.000
31
0.0
0
TEXT
8
TEXT_SMALL
10
59.000
20
254.000
30
0.0
40
2.400
1
(AXM / AXC / AXD)
72
1
73
1
11
59.000
21
254.000
31
0.0
0
LINE
8
COMPONENT
10
22.000
20
186.000
30
0.0
11
96.000
21
186.000
31
0.0
0
LINE
8
COMPONENT
10
96.000
20
186.000
30
0.0
11
96.000
21
220.000
31
0.0
0
LINE
8
COMPONENT
10
96.000
20
220.000
30
0.0
11
22.000
21
220.000
31
0.0
0
LINE
8
COMPONENT
10
22.000
20
220.000
30
0.0
11
22.000
21
186.000
31
0.0
0
LINE
8
COMPONENT
10
22.000
20
213.000
30
0.0
11
96.000
21
213.000
31
0.0
0
TEXT
8
TEXT
10
59.000
20
215.000
30
0.0
40
3.000
1
AJINEXTEK  AXM
72
1
73
1
11
59.000
21
215.000
31
0.0
0
TEXT
8
TEXT_SMALL
10
59.000
20
207.000
30
0.0
40
2.400
1
Motion board, 1 axis
72
1
73
1
11
59.000
21
207.000
31
0.0
0
TEXT
8
TEXT_SMALL
10
59.000
20
202.000
30
0.0
40
2.400
1
pulse out (line driver)
72
1
73
1
11
59.000
21
202.000
31
0.0
0
LINE
8
COMPONENT
10
22.000
20
140.000
30
0.0
11
96.000
21
140.000
31
0.0
0
LINE
8
COMPONENT
10
96.000
20
140.000
30
0.0
11
96.000
21
174.000
31
0.0
0
LINE
8
COMPONENT
10
96.000
20
174.000
30
0.0
11
22.000
21
174.000
31
0.0
0
LINE
8
COMPONENT
10
22.000
20
174.000
30
0.0
11
22.000
21
140.000
31
0.0
0
LINE
8
COMPONENT
10
22.000
20
167.000
30
0.0
11
96.000
21
167.000
31
0.0
0
TEXT
8
TEXT
10
59.000
20
169.000
30
0.0
40
3.000
1
AJINEXTEK  AXC
72
1
73
1
11
59.000
21
169.000
31
0.0
0
TEXT
8
TEXT_SMALL
10
59.000
20
161.000
30
0.0
40
2.400
1
SIO-HPC4L
72
1
73
1
11
59.000
21
161.000
31
0.0
0
TEXT
8
TEXT_SMALL
10
59.000
20
156.000
30
0.0
40
2.400
1
enc diff in / trig out
72
1
73
1
11
59.000
21
156.000
31
0.0
0
LINE
8
COMPONENT
10
22.000
20
100.000
30
0.0
11
96.000
21
100.000
31
0.0
0
LINE
8
COMPONENT
10
96.000
20
100.000
30
0.0
11
96.000
21
130.000
31
0.0
0
LINE
8
COMPONENT
10
96.000
20
130.000
30
0.0
11
22.000
21
130.000
31
0.0
0
LINE
8
COMPONENT
10
22.000
20
130.000
30
0.0
11
22.000
21
100.000
31
0.0
0
LINE
8
COMPONENT
10
22.000
20
123.000
30
0.0
11
96.000
21
123.000
31
0.0
0
TEXT
8
TEXT
10
59.000
20
125.000
30
0.0
40
3.000
1
AJINEXTEK  AXD
72
1
73
1
11
59.000
21
125.000
31
0.0
0
TEXT
8
TEXT_SMALL
10
59.000
20
117.000
30
0.0
40
2.400
1
Digital I/O
72
1
73
1
11
59.000
21
117.000
31
0.0
0
LINE
8
WIRE_SIG
10
59.000
20
232.000
30
0.0
11
59.000
21
226.000
31
0.0
0
LINE
8
WIRE_SIG
10
59.000
20
226.000
30
0.0
11
12.500
21
226.000
31
0.0
0
LINE
8
WIRE_SIG
10
14.000
20
226.000
30
0.0
11
14.000
21
203.000
31
0.0
0
LINE
8
WIRE_SIG
10
14.000
20
203.000
30
0.0
11
22.000
21
203.000
31
0.0
0
LINE
8
WIRE_SIG
10
14.000
20
226.000
30
0.0
11
14.000
21
157.000
31
0.0
0
LINE
8
WIRE_SIG
10
14.000
20
157.000
30
0.0
11
22.000
21
157.000
31
0.0
0
LINE
8
WIRE_SIG
10
14.000
20
226.000
30
0.0
11
14.000
21
115.000
31
0.0
0
LINE
8
WIRE_SIG
10
14.000
20
115.000
30
0.0
11
22.000
21
115.000
31
0.0
0
TEXT
8
TEXT_SMALL
10
16.000
20
228.000
30
0.0
40
2.300
1
PCI / PCIe BUS
0
CIRCLE
8
WIRE_SIG
10
14.000
20
203.000
30
0.0
40
0.800
0
CIRCLE
8
WIRE_SIG
10
14.000
20
203.000
30
0.0
40
0.440
0
CIRCLE
8
WIRE_SIG
10
14.000
20
157.000
30
0.0
40
0.800
0
CIRCLE
8
WIRE_SIG
10
14.000
20
157.000
30
0.0
40
0.440
0
CIRCLE
8
WIRE_SIG
10
14.000
20
115.000
30
0.0
40
0.800
0
CIRCLE
8
WIRE_SIG
10
14.000
20
115.000
30
0.0
40
0.440
0
LINE
8
COMPONENT
10
165.000
20
96.000
30
0.0
11
261.000
21
96.000
31
0.0
0
LINE
8
COMPONENT
10
261.000
20
96.000
30
0.0
11
261.000
21
272.000
31
0.0
0
LINE
8
COMPONENT
10
261.000
20
272.000
30
0.0
11
165.000
21
272.000
31
0.0
0
LINE
8
COMPONENT
10
165.000
20
272.000
30
0.0
11
165.000
21
96.000
31
0.0
0
LINE
8
COMPONENT
10
165.000
20
265.000
30
0.0
11
261.000
21
265.000
31
0.0
0
TEXT
8
TEXT
10
213.000
20
267.000
30
0.0
40
3.000
1
SERVO DRIVER
72
1
73
1
11
213.000
21
267.000
31
0.0
0
TEXT
8
TEXT_SMALL
10
213.000
20
259.000
30
0.0
40
2.400
1
PANASONIC  MBDLT25SM
72
1
73
1
11
213.000
21
259.000
31
0.0
0
TEXT
8
TEXT_SMALL
10
213.000
20
254.000
30
0.0
40
2.400
1
MINAS A6S  400W  200V
72
1
73
1
11
213.000
21
254.000
31
0.0
0
TEXT
8
TEXT_SMALL
10
168.000
20
246.000
30
0.0
40
2.600
1
X4  (50P I/O)
0
LINE
8
COMPONENT
10
165.000
20
242.000
30
0.0
11
199.000
21
242.000
31
0.0
0
TEXT
8
TEXT_SMALL
10
168.000
20
130.000
30
0.0
40
2.600
1
X5  EXT SCALE
0
TEXT
8
TEXT_SMALL
10
168.000
20
112.000
30
0.0
40
2.600
1
U / V / W
0
TEXT
8
TEXT_SMALL
10
217.000
20
112.000
30
0.0
40
2.600
1
L1 L2 L3 / L1C L2C
0
LINE
8
COMPONENT
10
306.000
20
236.000
30
0.0
11
390.000
21
236.000
31
0.0
0
LINE
8
COMPONENT
10
390.000
20
236.000
30
0.0
11
390.000
21
272.000
31
0.0
0
LINE
8
COMPONENT
10
390.000
20
272.000
30
0.0
11
306.000
21
272.000
31
0.0
0
LINE
8
COMPONENT
10
306.000
20
272.000
30
0.0
11
306.000
21
236.000
31
0.0
0
LINE
8
COMPONENT
10
306.000
20
265.000
30
0.0
11
390.000
21
265.000
31
0.0
0
TEXT
8
TEXT
10
348.000
20
267.000
30
0.0
40
3.000
1
LINEAR MOTOR
72
1
73
1
11
348.000
21
267.000
31
0.0
0
TEXT
8
TEXT_SMALL
10
348.000
20
259.000
30
0.0
40
2.400
1
1 axis  (scan axis)
72
1
73
1
11
348.000
21
259.000
31
0.0
0
LINE
8
COMPONENT
10
306.000
20
186.000
30
0.0
11
390.000
21
186.000
31
0.0
0
LINE
8
COMPONENT
10
390.000
20
186.000
30
0.0
11
390.000
21
222.000
31
0.0
0
LINE
8
COMPONENT
10
390.000
20
222.000
30
0.0
11
306.000
21
222.000
31
0.0
0
LINE
8
COMPONENT
10
306.000
20
222.000
30
0.0
11
306.000
21
186.000
31
0.0
0
LINE
8
COMPONENT
10
306.000
20
215.000
30
0.0
11
390.000
21
215.000
31
0.0
0
TEXT
8
TEXT
10
348.000
20
217.000
30
0.0
40
3.000
1
LINEAR SCALE
72
1
73
1
11
348.000
21
217.000
31
0.0
0
TEXT
8
TEXT_SMALL
10
348.000
20
209.000
30
0.0
40
2.400
1
full-closed feedback
72
1
73
1
11
348.000
21
209.000
31
0.0
0
LINE
8
COMPONENT
10
306.000
20
120.000
30
0.0
11
390.000
21
120.000
31
0.0
0
LINE
8
COMPONENT
10
390.000
20
120.000
30
0.0
11
390.000
21
164.000
31
0.0
0
LINE
8
COMPONENT
10
390.000
20
164.000
30
0.0
11
306.000
21
164.000
31
0.0
0
LINE
8
COMPONENT
10
306.000
20
164.000
30
0.0
11
306.000
21
120.000
31
0.0
0
LINE
8
COMPONENT
10
306.000
20
157.000
30
0.0
11
390.000
21
157.000
31
0.0
0
TEXT
8
TEXT
10
348.000
20
159.000
30
0.0
40
3.000
1
LINE SCAN CAMERA
72
1
73
1
11
348.000
21
159.000
31
0.0
0
TEXT
8
TEXT_SMALL
10
348.000
20
151.000
30
0.0
40
2.400
1
Control I/O  6P
72
1
73
1
11
348.000
21
151.000
31
0.0
0
TEXT
8
TEXT_SMALL
10
348.000
20
146.000
30
0.0
40
2.400
1
pin1 TRIG IN / pin3 GND
72
1
73
1
11
348.000
21
146.000
31
0.0
0
LINE
8
COMPONENT
10
22.000
20
58.000
30
0.0
11
96.000
21
58.000
31
0.0
0
LINE
8
COMPONENT
10
96.000
20
58.000
30
0.0
11
96.000
21
88.000
31
0.0
0
LINE
8
COMPONENT
10
96.000
20
88.000
30
0.0
11
22.000
21
88.000
31
0.0
0
LINE
8
COMPONENT
10
22.000
20
88.000
30
0.0
11
22.000
21
58.000
31
0.0
0
LINE
8
COMPONENT
10
22.000
20
81.000
30
0.0
11
96.000
21
81.000
31
0.0
0
TEXT
8
TEXT
10
59.000
20
83.000
30
0.0
40
3.000
1
AC 200-240V
72
1
73
1
11
59.000
21
83.000
31
0.0
0
TEXT
8
TEXT_SMALL
10
59.000
20
75.000
30
0.0
40
2.400
1
1PH / 3PH  + PE
72
1
73
1
11
59.000
21
75.000
31
0.0
0
LINE
8
COMPONENT
10
120.000
20
58.000
30
0.0
11
186.000
21
58.000
31
0.0
0
LINE
8
COMPONENT
10
186.000
20
58.000
30
0.0
11
186.000
21
88.000
31
0.0
0
LINE
8
COMPONENT
10
186.000
20
88.000
30
0.0
11
120.000
21
88.000
31
0.0
0
LINE
8
COMPONENT
10
120.000
20
88.000
30
0.0
11
120.000
21
58.000
31
0.0
0
LINE
8
COMPONENT
10
120.000
20
81.000
30
0.0
11
186.000
21
81.000
31
0.0
0
TEXT
8
TEXT
10
153.000
20
83.000
30
0.0
40
3.000
1
DC 24V PSU
72
1
73
1
11
153.000
21
83.000
31
0.0
0
TEXT
8
TEXT_SMALL
10
153.000
20
75.000
30
0.0
40
2.400
1
I/O power
72
1
73
1
11
153.000
21
75.000
31
0.0
0
LINE
8
WIRE_PWR
10
96.000
20
73.000
30
0.0
11
140.000
21
73.000
31
0.0
0
LINE
8
WIRE_PWR
10
140.000
20
73.000
30
0.0
11
140.000
21
112.000
31
0.0
0
LINE
8
WIRE_PWR
10
140.000
20
112.000
30
0.0
11
165.000
21
112.000
31
0.0
0
LINE
8
WIRE_PWR
10
165.000
20
112.000
30
0.0
11
162.800
21
112.990
31
0.0
0
LINE
8
WIRE_PWR
10
165.000
20
112.000
30
0.0
11
162.800
21
111.010
31
0.0
0
TEXT
8
TEXT_SMALL
10
100.000
20
75.500
30
0.0
40
2.400
1
AC200-240V + PE
0
LINE
8
WIRE_PWR
10
261.000
20
112.000
30
0.0
11
285.000
21
112.000
31
0.0
0
LINE
8
WIRE_PWR
10
285.000
20
112.000
30
0.0
11
285.000
21
254.000
31
0.0
0
LINE
8
WIRE_PWR
10
285.000
20
254.000
30
0.0
11
306.000
21
254.000
31
0.0
0
LINE
8
WIRE_PWR
10
306.000
20
254.000
30
0.0
11
303.800
21
254.990
31
0.0
0
LINE
8
WIRE_PWR
10
306.000
20
254.000
30
0.0
11
303.800
21
253.010
31
0.0
0
TEXT
8
TEXT_SMALL
10
264.000
20
114.500
30
0.0
40
2.400
1
U V W + PE
0
LINE
8
WIRE_DIFF
10
306.000
20
204.000
30
0.0
11
276.000
21
204.000
31
0.0
0
LINE
8
WIRE_DIFF
10
276.000
20
204.000
30
0.0
11
276.000
21
130.000
31
0.0
0
LINE
8
WIRE_DIFF
10
276.000
20
130.000
30
0.0
11
261.000
21
130.000
31
0.0
0
LINE
8
WIRE_DIFF
10
261.000
20
130.000
30
0.0
11
263.200
21
129.010
31
0.0
0
LINE
8
WIRE_DIFF
10
261.000
20
130.000
30
0.0
11
263.200
21
130.990
31
0.0
0
TEXT
8
TEXT_SMALL
10
278.000
20
168.000
30
0.0
40
2.400
1
SCALE FB
0
TEXT
8
TEXT_SMALL
10
278.000
20
163.000
30
0.0
40
2.400
1
-> X5
0
LINE
8
WIRE_SIG
10
96.000
20
203.000
30
0.0
11
130.000
21
203.000
31
0.0
0
LINE
8
WIRE_SIG
10
130.000
20
203.000
30
0.0
11
130.000
21
246.000
31
0.0
0
LINE
8
WIRE_SIG
10
130.000
20
246.000
30
0.0
11
165.000
21
246.000
31
0.0
0
LINE
8
WIRE_SIG
10
165.000
20
246.000
30
0.0
11
162.800
21
246.990
31
0.0
0
LINE
8
WIRE_SIG
10
165.000
20
246.000
30
0.0
11
162.800
21
245.010
31
0.0
0
TEXT
8
TEXT_SMALL
10
99.000
20
205.500
30
0.0
40
2.400
1
PULS+/- SIGN+/-  SRV-ON  A-CLR  CL
0
TEXT
8
TEXT_SMALL
10
99.000
20
200.500
30
0.0
40
2.400
1
ALM  S-RDY  INP        -> SHEET 2
0
LINE
8
WIRE_DIFF
10
165.000
20
236.000
30
0.0
11
146.000
21
236.000
31
0.0
0
LINE
8
WIRE_DIFF
10
146.000
20
236.000
30
0.0
11
146.000
21
157.000
31
0.0
0
LINE
8
WIRE_DIFF
10
146.000
20
157.000
30
0.0
11
96.000
21
157.000
31
0.0
0
LINE
8
WIRE_DIFF
10
96.000
20
157.000
30
0.0
11
98.200
21
156.010
31
0.0
0
LINE
8
WIRE_DIFF
10
96.000
20
157.000
30
0.0
11
98.200
21
157.990
31
0.0
0
TEXT
8
TEXT_SMALL
10
100.000
20
165.000
30
0.0
40
2.400
1
OA+/- OB+/- OZ+/-
0
TEXT
8
TEXT_SMALL
10
100.000
20
160.000
30
0.0
40
2.400
1
PULSE REGEN   -> SHEET 3
0
LINE
8
WIRE_TRIG
10
96.000
20
148.000
30
0.0
11
112.000
21
148.000
31
0.0
0
LINE
8
WIRE_TRIG
10
112.000
20
148.000
30
0.0
11
112.000
21
92.000
31
0.0
0
LINE
8
WIRE_TRIG
10
112.000
20
92.000
30
0.0
11
296.000
21
92.000
31
0.0
0
LINE
8
WIRE_TRIG
10
296.000
20
92.000
30
0.0
11
296.000
21
142.000
31
0.0
0
LINE
8
WIRE_TRIG
10
296.000
20
142.000
30
0.0
11
306.000
21
142.000
31
0.0
0
LINE
8
WIRE_TRIG
10
306.000
20
142.000
30
0.0
11
303.800
21
142.990
31
0.0
0
LINE
8
WIRE_TRIG
10
306.000
20
142.000
30
0.0
11
303.800
21
141.010
31
0.0
0
TEXT
8
TEXT_SMALL
10
150.000
20
94.500
30
0.0
40
2.400
1
TRIG OUT 0   5V TTL push-pull   -> SHEET 3
0
LINE
8
WIRE_PWR
10
186.000
20
73.000
30
0.0
11
204.000
21
73.000
31
0.0
0
LINE
8
WIRE_PWR
10
204.000
20
73.000
30
0.0
11
204.000
21
226.000
31
0.0
0
LINE
8
WIRE_PWR
10
204.000
20
226.000
30
0.0
11
165.000
21
226.000
31
0.0
0
LINE
8
WIRE_PWR
10
165.000
20
226.000
30
0.0
11
167.200
21
225.010
31
0.0
0
LINE
8
WIRE_PWR
10
165.000
20
226.000
30
0.0
11
167.200
21
226.990
31
0.0
0
TEXT
8
TEXT_SMALL
10
206.000
20
150.000
30
0.0
40
2.400
1
DC24V
0
TEXT
8
TEXT_SMALL
10
206.000
20
145.000
30
0.0
40
2.400
1
COM+/COM-
0
LINE
8
WIRE_PWR
10
153.000
20
73.000
30
0.0
11
153.000
21
115.000
31
0.0
0
LINE
8
WIRE_PWR
10
153.000
20
115.000
30
0.0
11
96.000
21
115.000
31
0.0
0
LINE
8
WIRE_PWR
10
96.000
20
115.000
30
0.0
11
98.200
21
114.010
31
0.0
0
LINE
8
WIRE_PWR
10
96.000
20
115.000
30
0.0
11
98.200
21
115.990
31
0.0
0
CIRCLE
8
WIRE_PWR
10
153.000
20
73.000
30
0.0
40
0.800
0
CIRCLE
8
WIRE_PWR
10
153.000
20
73.000
30
0.0
40
0.440
0
LINE
8
WIRE_SIG
10
96.000
20
107.000
30
0.0
11
232.000
21
107.000
31
0.0
0
LINE
8
WIRE_SIG
10
232.000
20
107.000
30
0.0
11
232.000
21
96.000
31
0.0
0
LINE
8
WIRE_SIG
10
232.000
20
96.000
30
0.0
11
232.990
21
98.200
31
0.0
0
LINE
8
WIRE_SIG
10
232.000
20
96.000
30
0.0
11
231.010
21
98.200
31
0.0
0
TEXT
8
TEXT_SMALL
10
100.000
20
109.500
30
0.0
40
2.400
1
LIMIT + / -  , HOME , EMG
0
LINE
8
NOTE
10
250.000
20
62.000
30
0.0
11
408.000
21
62.000
31
0.0
0
LINE
8
NOTE
10
408.000
20
62.000
30
0.0
11
408.000
21
102.000
31
0.0
0
LINE
8
NOTE
10
408.000
20
102.000
30
0.0
11
250.000
21
102.000
31
0.0
0
LINE
8
NOTE
10
250.000
20
102.000
30
0.0
11
250.000
21
62.000
31
0.0
0
LINE
8
NOTE
10
250.000
20
95.000
30
0.0
11
408.000
21
95.000
31
0.0
0
TEXT
8
NOTE
10
252.500
20
97.000
30
0.0
40
2.800
1
LEGEND
0
LINE
8
WIRE_PWR
10
254.000
20
89.000
30
0.0
11
272.000
21
89.000
31
0.0
0
TEXT
8
TEXT_SMALL
10
276.000
20
89.000
30
0.0
40
2.400
1
POWER  (AC / DC)
72
0
73
2
11
276.000
21
89.000
31
0.0
0
LINE
8
WIRE_SIG
10
254.000
20
82.500
30
0.0
11
272.000
21
82.500
31
0.0
0
TEXT
8
TEXT_SMALL
10
276.000
20
82.500
30
0.0
40
2.400
1
SIGNAL (single ended)
72
0
73
2
11
276.000
21
82.500
31
0.0
0
LINE
8
WIRE_DIFF
10
254.000
20
76.000
30
0.0
11
272.000
21
76.000
31
0.0
0
TEXT
8
TEXT_SMALL
10
276.000
20
76.000
30
0.0
40
2.400
1
DIFFERENTIAL PAIR (shielded TP)
72
0
73
2
11
276.000
21
76.000
31
0.0
0
LINE
8
WIRE_TRIG
10
254.000
20
69.500
30
0.0
11
272.000
21
69.500
31
0.0
0
TEXT
8
TEXT_SMALL
10
276.000
20
69.500
30
0.0
40
2.400
1
TRIGGER 5V TTL
72
0
73
2
11
276.000
21
69.500
31
0.0
0
LINE
8
NOTE
10
120.000
20
96.000
30
0.0
11
246.000
21
96.000
31
0.0
0
LINE
8
NOTE
10
246.000
20
96.000
30
0.0
11
246.000
21
139.000
31
0.0
0
LINE
8
NOTE
10
246.000
20
139.000
30
0.0
11
120.000
21
139.000
31
0.0
0
LINE
8
NOTE
10
120.000
20
139.000
30
0.0
11
120.000
21
96.000
31
0.0
0
LINE
8
NOTE
10
120.000
20
132.000
30
0.0
11
246.000
21
132.000
31
0.0
0
TEXT
8
NOTE
10
122.500
20
134.000
30
0.0
40
2.800
1
NOTES
0
TEXT
8
TEXT_SMALL
10
122.500
20
127.000
30
0.0
40
2.300
1
1. FASTECH Ez-ML-PE-PAN REMOVED. X4 WIRED DIRECT TO AJINEXTEK.
0
TEXT
8
TEXT_SMALL
10
122.500
20
122.000
30
0.0
40
2.300
1
2. TRIGGER IS DERIVED FROM PULSE REGEN (ACTUAL POSITION),
0
TEXT
8
TEXT_SMALL
10
122.500
20
117.000
30
0.0
40
2.300
1
   NEVER FROM THE COMMAND PULSE TRAIN.
0
TEXT
8
TEXT_SMALL
10
122.500
20
112.000
30
0.0
40
2.300
1
3. P_cmd = 0.5 um/pulse   UPP = 0.1 um/count   PITCH = 5.0 um
0
TEXT
8
TEXT_SMALL
10
122.500
20
107.000
30
0.0
40
2.300
1
4. PIN NUMBERS TBD - VERIFY AGAINST DRIVER / CAMERA MANUAL.
0
TEXT
8
TEXT_SMALL
10
122.500
20
102.000
30
0.0
40
2.300
1
5. LINEAR MOTOR MAGNETIC POLE DETECTION SEQUENCE MUST BE
0
TEXT
8
TEXT_SMALL
10
122.500
20
97.000
30
0.0
40
2.300
1
   CONFIRMED BEFORE REMOVING THE Ez-ML MODULE.
0
ENDSEC
0
EOF
