0
SECTION
2
HEADER
9
$ACADVER
1
AC1009
9
$INSBASE
10
0.0
20
0.0
30
0.0
9
$EXTMIN
10
0.0
20
0.0
30
0.0
9
$EXTMAX
10
420.0
20
297.0
30
0.0
9
$LIMMIN
10
0.0
20
0.0
9
$LIMMAX
10
420.0
20
297.0
9
$LUNITS
70
2
9
$INSUNITS
70
4
0
ENDSEC
0
SECTION
2
TABLES
0
TABLE
2
LTYPE
70
1
0
LTYPE
2
CONTINUOUS
70
0
3
Solid line
72
65
73
0
40
0.0
0
ENDTAB
0
TABLE
2
LAYER
70
12
0
LAYER
2
BORDER
70
0
62
7
6
CONTINUOUS
0
LAYER
2
TITLE
70
0
62
7
6
CONTINUOUS
0
LAYER
2
COMPONENT
70
0
62
5
6
CONTINUOUS
0
LAYER
2
TERMINAL
70
0
62
7
6
CONTINUOUS
0
LAYER
2
WIRE_PWR
70
0
62
1
6
CONTINUOUS
0
LAYER
2
WIRE_SIG
70
0
62
3
6
CONTINUOUS
0
LAYER
2
WIRE_DIFF
70
0
62
4
6
CONTINUOUS
0
LAYER
2
WIRE_TRIG
70
0
62
6
6
CONTINUOUS
0
LAYER
2
TEXT
70
0
62
7
6
CONTINUOUS
0
LAYER
2
TEXT_SMALL
70
0
62
8
6
CONTINUOUS
0
LAYER
2
NOTE
70
0
62
2
6
CONTINUOUS
0
LAYER
2
DIM
70
0
62
8
6
CONTINUOUS
0
ENDTAB
0
TABLE
2
STYLE
70
1
0
STYLE
2
STANDARD
70
0
40
0.0
41
1.0
50
0.0
71
0
42
2.5
3
txt
4

0
ENDTAB
0
ENDSEC
0
SECTION
2
ENTITIES
0
LINE
8
BORDER
10
10.000
20
10.000
30
0.0
11
410.000
21
10.000
31
0.0
0
LINE
8
BORDER
10
410.000
20
10.000
30
0.0
11
410.000
21
287.000
31
0.0
0
LINE
8
BORDER
10
410.000
20
287.000
30
0.0
11
10.000
21
287.000
31
0.0
0
LINE
8
BORDER
10
10.000
20
287.000
30
0.0
11
10.000
21
10.000
31
0.0
0
LINE
8
BORDER
10
12.000
20
12.000
30
0.0
11
408.000
21
12.000
31
0.0
0
LINE
8
BORDER
10
408.000
20
12.000
30
0.0
11
408.000
21
285.000
31
0.0
0
LINE
8
BORDER
10
408.000
20
285.000
30
0.0
11
12.000
21
285.000
31
0.0
0
LINE
8
BORDER
10
12.000
20
285.000
30
0.0
11
12.000
21
12.000
31
0.0
0
LINE
8
TITLE
10
250.000
20
12.000
30
0.0
11
408.000
21
12.000
31
0.0
0
LINE
8
TITLE
10
408.000
20
12.000
30
0.0
11
408.000
21
56.000
31
0.0
0
LINE
8
TITLE
10
408.000
20
56.000
30
0.0
11
250.000
21
56.000
31
0.0
0
LINE
8
TITLE
10
250.000
20
56.000
30
0.0
11
250.000
21
12.000
31
0.0
0
LINE
8
TITLE
10
250.000
20
23.000
30
0.0
11
408.000
21
23.000
31
0.0
0
LINE
8
TITLE
10
250.000
20
34.000
30
0.0
11
408.000
21
34.000
31
0.0
0
LINE
8
TITLE
10
250.000
20
45.000
30
0.0
11
408.000
21
45.000
31
0.0
0
LINE
8
TITLE
10
350.000
20
12.000
30
0.0
11
350.000
21
45.000
31
0.0
0
TEXT
8
TITLE
10
253.000
20
49.000
30
0.0
40
3.600
1
LINE SCAN INSPECTION  /  1-AXIS ENCODER TRIGGER
0
TEXT
8
TITLE
10
253.000
20
38.000
30
0.0
40
3.200
1
SHEET 3 : TRIGGER CHAIN  (PULSE REGEN -> HPC4L -> CAMERA)
0
TEXT
8
TEXT_SMALL
10
253.000
20
28.000
30
0.0
40
2.400
1
PROJECT : SEQApp
0
TEXT
8
TEXT_SMALL
10
253.000
20
17.000
30
0.0
40
2.400
1
DRAWN   : (   )    CHK : (   )
0
TEXT
8
TEXT_SMALL
10
353.000
20
28.000
30
0.0
40
2.400
1
SHEET 3 OF 3
0
TEXT
8
TEXT_SMALL
10
353.000
20
17.000
30
0.0
40
2.400
1
Rev.2   SIZE A3   DATE:(      )
0
LINE
8
COMPONENT
10
22.000
20
178.000
30
0.0
11
106.000
21
178.000
31
0.0
0
LINE
8
COMPONENT
10
106.000
20
178.000
30
0.0
11
106.000
21
260.000
31
0.0
0
LINE
8
COMPONENT
10
106.000
20
260.000
30
0.0
11
22.000
21
260.000
31
0.0
0
LINE
8
COMPONENT
10
22.000
20
260.000
30
0.0
11
22.000
21
178.000
31
0.0
0
LINE
8
COMPONENT
10
22.000
20
253.000
30
0.0
11
106.000
21
253.000
31
0.0
0
TEXT
8
TEXT
10
64.000
20
255.000
30
0.0
40
3.000
1
MBDLT25SM
72
1
73
1
11
64.000
21
255.000
31
0.0
0
TEXT
8
TEXT_SMALL
10
64.000
20
247.000
30
0.0
40
2.400
1
X4 PULSE REGEN
72
1
73
1
11
64.000
21
247.000
31
0.0
0
TEXT
8
TEXT_SMALL
10
64.000
20
242.000
30
0.0
40
2.400
1
line driver out
72
1
73
1
11
64.000
21
242.000
31
0.0
0
LINE
8
COMPONENT
10
160.000
20
150.000
30
0.0
11
260.000
21
150.000
31
0.0
0
LINE
8
COMPONENT
10
260.000
20
150.000
30
0.0
11
260.000
21
260.000
31
0.0
0
LINE
8
COMPONENT
10
260.000
20
260.000
30
0.0
11
160.000
21
260.000
31
0.0
0
LINE
8
COMPONENT
10
160.000
20
260.000
30
0.0
11
160.000
21
150.000
31
0.0
0
LINE
8
COMPONENT
10
160.000
20
253.000
30
0.0
11
260.000
21
253.000
31
0.0
0
TEXT
8
TEXT
10
210.000
20
255.000
30
0.0
40
3.000
1
AJINEXTEK
72
1
73
1
11
210.000
21
255.000
31
0.0
0
TEXT
8
TEXT_SMALL
10
210.000
20
247.000
30
0.0
40
2.400
1
SIO-HPC4L
72
1
73
1
11
210.000
21
247.000
31
0.0
0
TEXT
8
TEXT_SMALL
10
210.000
20
242.000
30
0.0
40
2.400
1
4CH enc / trigger
72
1
73
1
11
210.000
21
242.000
31
0.0
0
LINE
8
COMPONENT
10
310.000
20
178.000
30
0.0
11
396.000
21
178.000
31
0.0
0
LINE
8
COMPONENT
10
396.000
20
178.000
30
0.0
11
396.000
21
260.000
31
0.0
0
LINE
8
COMPONENT
10
396.000
20
260.000
30
0.0
11
310.000
21
260.000
31
0.0
0
LINE
8
COMPONENT
10
310.000
20
260.000
30
0.0
11
310.000
21
178.000
31
0.0
0
LINE
8
COMPONENT
10
310.000
20
253.000
30
0.0
11
396.000
21
253.000
31
0.0
0
TEXT
8
TEXT
10
353.000
20
255.000
30
0.0
40
3.000
1
LINE SCAN CAMERA
72
1
73
1
11
353.000
21
255.000
31
0.0
0
TEXT
8
TEXT_SMALL
10
353.000
20
247.000
30
0.0
40
2.400
1
Control I/O 6P
72
1
73
1
11
353.000
21
247.000
31
0.0
0
CIRCLE
8
TERMINAL
10
106.000
20
250.000
30
0.0
40
0.900
0
TEXT
8
TEXT_SMALL
10
103.800
20
250.000
30
0.0
40
2.200
1
OA+
72
2
73
2
11
103.800
21
250.000
31
0.0
0
CIRCLE
8
TERMINAL
10
160.000
20
250.000
30
0.0
40
0.900
0
TEXT
8
TEXT_SMALL
10
162.200
20
250.000
30
0.0
40
2.200
1
ENC A+
72
0
73
2
11
162.200
21
250.000
31
0.0
0
LINE
8
WIRE_DIFF
10
106.000
20
250.000
30
0.0
11
160.000
21
250.000
31
0.0
0
LINE
8
WIRE_DIFF
10
156.000
20
250.000
30
0.0
11
153.800
21
250.990
31
0.0
0
LINE
8
WIRE_DIFF
10
156.000
20
250.000
30
0.0
11
153.800
21
249.010
31
0.0
0
CIRCLE
8
TERMINAL
10
106.000
20
240.500
30
0.0
40
0.900
0
TEXT
8
TEXT_SMALL
10
103.800
20
240.500
30
0.0
40
2.200
1
OA-
72
2
73
2
11
103.800
21
240.500
31
0.0
0
CIRCLE
8
TERMINAL
10
160.000
20
240.500
30
0.0
40
0.900
0
TEXT
8
TEXT_SMALL
10
162.200
20
240.500
30
0.0
40
2.200
1
ENC A-
72
0
73
2
11
162.200
21
240.500
31
0.0
0
LINE
8
WIRE_DIFF
10
106.000
20
240.500
30
0.0
11
160.000
21
240.500
31
0.0
0
LINE
8
WIRE_DIFF
10
156.000
20
240.500
30
0.0
11
153.800
21
241.490
31
0.0
0
LINE
8
WIRE_DIFF
10
156.000
20
240.500
30
0.0
11
153.800
21
239.510
31
0.0
0
CIRCLE
8
TERMINAL
10
106.000
20
231.000
30
0.0
40
0.900
0
TEXT
8
TEXT_SMALL
10
103.800
20
231.000
30
0.0
40
2.200
1
OB+
72
2
73
2
11
103.800
21
231.000
31
0.0
0
CIRCLE
8
TERMINAL
10
160.000
20
231.000
30
0.0
40
0.900
0
TEXT
8
TEXT_SMALL
10
162.200
20
231.000
30
0.0
40
2.200
1
ENC B+
72
0
73
2
11
162.200
21
231.000
31
0.0
0
LINE
8
WIRE_DIFF
10
106.000
20
231.000
30
0.0
11
160.000
21
231.000
31
0.0
0
LINE
8
WIRE_DIFF
10
156.000
20
231.000
30
0.0
11
153.800
21
231.990
31
0.0
0
LINE
8
WIRE_DIFF
10
156.000
20
231.000
30
0.0
11
153.800
21
230.010
31
0.0
0
CIRCLE
8
TERMINAL
10
106.000
20
221.500
30
0.0
40
0.900
0
TEXT
8
TEXT_SMALL
10
103.800
20
221.500
30
0.0
40
2.200
1
OB-
72
2
73
2
11
103.800
21
221.500
31
0.0
0
CIRCLE
8
TERMINAL
10
160.000
20
221.500
30
0.0
40
0.900
0
TEXT
8
TEXT_SMALL
10
162.200
20
221.500
30
0.0
40
2.200
1
ENC B-
72
0
73
2
11
162.200
21
221.500
31
0.0
0
LINE
8
WIRE_DIFF
10
106.000
20
221.500
30
0.0
11
160.000
21
221.500
31
0.0
0
LINE
8
WIRE_DIFF
10
156.000
20
221.500
30
0.0
11
153.800
21
222.490
31
0.0
0
LINE
8
WIRE_DIFF
10
156.000
20
221.500
30
0.0
11
153.800
21
220.510
31
0.0
0
CIRCLE
8
TERMINAL
10
106.000
20
212.000
30
0.0
40
0.900
0
TEXT
8
TEXT_SMALL
10
103.800
20
212.000
30
0.0
40
2.200
1
OZ+
72
2
73
2
11
103.800
21
212.000
31
0.0
0
CIRCLE
8
TERMINAL
10
160.000
20
212.000
30
0.0
40
0.900
0
TEXT
8
TEXT_SMALL
10
162.200
20
212.000
30
0.0
40
2.200
1
ENC Z+
72
0
73
2
11
162.200
21
212.000
31
0.0
0
LINE
8
WIRE_DIFF
10
106.000
20
212.000
30
0.0
11
160.000
21
212.000
31
0.0
0
LINE
8
WIRE_DIFF
10
156.000
20
212.000
30
0.0
11
153.800
21
212.990
31
0.0
0
LINE
8
WIRE_DIFF
10
156.000
20
212.000
30
0.0
11
153.800
21
211.010
31
0.0
0
CIRCLE
8
TERMINAL
10
106.000
20
202.500
30
0.0
40
0.900
0
TEXT
8
TEXT_SMALL
10
103.800
20
202.500
30
0.0
40
2.200
1
OZ-
72
2
73
2
11
103.800
21
202.500
31
0.0
0
CIRCLE
8
TERMINAL
10
160.000
20
202.500
30
0.0
40
0.900
0
TEXT
8
TEXT_SMALL
10
162.200
20
202.500
30
0.0
40
2.200
1
ENC Z-
72
0
73
2
11
162.200
21
202.500
31
0.0
0
LINE
8
WIRE_DIFF
10
106.000
20
202.500
30
0.0
11
160.000
21
202.500
31
0.0
0
LINE
8
WIRE_DIFF
10
156.000
20
202.500
30
0.0
11
153.800
21
203.490
31
0.0
0
LINE
8
WIRE_DIFF
10
156.000
20
202.500
30
0.0
11
153.800
21
201.510
31
0.0
0
CIRCLE
8
TERMINAL
10
106.000
20
193.000
30
0.0
40
0.900
0
TEXT
8
TEXT_SMALL
10
103.800
20
193.000
30
0.0
40
2.200
1
SG
72
2
73
2
11
103.800
21
193.000
31
0.0
0
CIRCLE
8
TERMINAL
10
160.000
20
193.000
30
0.0
40
0.900
0
TEXT
8
TEXT_SMALL
10
162.200
20
193.000
30
0.0
40
2.200
1
GND
72
0
73
2
11
162.200
21
193.000
31
0.0
0
LINE
8
WIRE_SIG
10
106.000
20
193.000
30
0.0
11
160.000
21
193.000
31
0.0
0
LINE
8
WIRE_SIG
10
156.000
20
193.000
30
0.0
11
153.800
21
193.990
31
0.0
0
LINE
8
WIRE_SIG
10
156.000
20
193.000
30
0.0
11
153.800
21
192.010
31
0.0
0
TEXT
8
TEXT_SMALL
10
133.000
20
256.000
30
0.0
40
2.400
1
SHIELDED TP x3
72
1
73
2
11
133.000
21
256.000
31
0.0
0
CIRCLE
8
TERMINAL
10
260.000
20
236.000
30
0.0
40
0.900
0
TEXT
8
TEXT_SMALL
10
262.200
20
236.000
30
0.0
40
2.200
1
TRIG OUT 0
72
0
73
2
11
262.200
21
236.000
31
0.0
0
LINE
8
WIRE_TRIG
10
260.000
20
236.000
30
0.0
11
282.000
21
236.000
31
0.0
0
LINE
8
WIRE_TRIG
10
282.000
20
233.000
30
0.0
11
296.000
21
233.000
31
0.0
0
LINE
8
WIRE_TRIG
10
296.000
20
233.000
30
0.0
11
296.000
21
239.000
31
0.0
0
LINE
8
WIRE_TRIG
10
296.000
20
239.000
30
0.0
11
282.000
21
239.000
31
0.0
0
LINE
8
WIRE_TRIG
10
282.000
20
239.000
30
0.0
11
282.000
21
233.000
31
0.0
0
TEXT
8
TEXT_SMALL
10
289.000
20
242.500
30
0.0
40
2.300
1
33-47R
72
1
73
1
11
289.000
21
242.500
31
0.0
0
LINE
8
WIRE_TRIG
10
296.000
20
236.000
30
0.0
11
310.000
21
236.000
31
0.0
0
LINE
8
WIRE_TRIG
10
310.000
20
236.000
30
0.0
11
307.800
21
236.990
31
0.0
0
LINE
8
WIRE_TRIG
10
310.000
20
236.000
30
0.0
11
307.800
21
235.010
31
0.0
0
CIRCLE
8
TERMINAL
10
310.000
20
236.000
30
0.0
40
0.900
0
TEXT
8
TEXT_SMALL
10
312.200
20
236.000
30
0.0
40
2.200
1
pin1  TRIG IN
72
0
73
2
11
312.200
21
236.000
31
0.0
0
CIRCLE
8
TERMINAL
10
260.000
20
224.000
30
0.0
40
0.900
0
TEXT
8
TEXT_SMALL
10
262.200
20
224.000
30
0.0
40
2.200
1
GND
72
0
73
2
11
262.200
21
224.000
31
0.0
0
LINE
8
WIRE_SIG
10
260.000
20
224.000
30
0.0
11
310.000
21
224.000
31
0.0
0
CIRCLE
8
TERMINAL
10
310.000
20
224.000
30
0.0
40
0.900
0
TEXT
8
TEXT_SMALL
10
312.200
20
224.000
30
0.0
40
2.200
1
pin3  DC GND
72
0
73
2
11
312.200
21
224.000
31
0.0
0
CIRCLE
8
TERMINAL
10
310.000
20
206.000
30
0.0
40
0.900
0
TEXT
8
TEXT_SMALL
10
312.200
20
206.000
30
0.0
40
2.200
1
pin4  STROBE OUT
72
0
73
2
11
312.200
21
206.000
31
0.0
0
LINE
8
WIRE_SIG
10
310.000
20
206.000
30
0.0
11
296.000
21
206.000
31
0.0
0
LINE
8
WIRE_SIG
10
296.000
20
206.000
30
0.0
11
296.000
21
168.000
31
0.0
0
LINE
8
WIRE_SIG
10
296.000
20
168.000
30
0.0
11
206.000
21
168.000
31
0.0
0
LINE
8
WIRE_SIG
10
206.000
20
168.000
30
0.0
11
208.200
21
167.010
31
0.0
0
LINE
8
WIRE_SIG
10
206.000
20
168.000
30
0.0
11
208.200
21
168.990
31
0.0
0
TEXT
8
TEXT_SMALL
10
210.000
20
170.500
30
0.0
40
2.400
1
STROBE -> SCOPE / COUNTER (VERIFY V-4)
0
CIRCLE
8
TERMINAL
10
310.000
20
194.000
30
0.0
40
0.900
0
TEXT
8
TEXT_SMALL
10
312.200
20
194.000
30
0.0
40
2.200
1
pin2  DIRECTION IN
72
0
73
2
11
312.200
21
194.000
31
0.0
0
LINE
8
WIRE_SIG
10
310.000
20
194.000
30
0.0
11
302.000
21
194.000
31
0.0
0
LINE
8
WIRE_SIG
10
302.000
20
194.000
30
0.0
11
302.000
21
160.000
31
0.0
0
LINE
8
WIRE_SIG
10
302.000
20
160.000
30
0.0
11
260.000
21
160.000
31
0.0
0
LINE
8
WIRE_SIG
10
260.000
20
160.000
30
0.0
11
262.200
21
159.010
31
0.0
0
LINE
8
WIRE_SIG
10
260.000
20
160.000
30
0.0
11
262.200
21
160.990
31
0.0
0
TEXT
8
TEXT_SMALL
10
264.000
20
162.500
30
0.0
40
2.400
1
OPTIONAL (bi-dir scan)
0
LINE
8
NOTE
10
22.000
20
96.000
30
0.0
11
182.000
21
96.000
31
0.0
0
LINE
8
NOTE
10
182.000
20
96.000
30
0.0
11
182.000
21
152.000
31
0.0
0
LINE
8
NOTE
10
182.000
20
152.000
30
0.0
11
22.000
21
152.000
31
0.0
0
LINE
8
NOTE
10
22.000
20
152.000
30
0.0
11
22.000
21
96.000
31
0.0
0
LINE
8
NOTE
10
22.000
20
145.000
30
0.0
11
182.000
21
145.000
31
0.0
0
TEXT
8
NOTE
10
24.500
20
147.000
30
0.0
40
2.800
1
OPTION : GALVANIC ISOLATION
0
TEXT
8
TEXT_SMALL
10
26.000
20
138.000
30
0.0
40
2.400
1
USE ONLY IF GROUND POTENTIAL DIFFERENCE
0
TEXT
8
TEXT_SMALL
10
26.000
20
133.000
30
0.0
40
2.400
1
CAUSES FALSE TRIGGERS.
0
LINE
8
COMPONENT
10
38.000
20
108.000
30
0.0
11
82.000
21
108.000
31
0.0
0
LINE
8
COMPONENT
10
82.000
20
108.000
30
0.0
11
82.000
21
126.000
31
0.0
0
LINE
8
COMPONENT
10
82.000
20
126.000
30
0.0
11
38.000
21
126.000
31
0.0
0
LINE
8
COMPONENT
10
38.000
20
126.000
30
0.0
11
38.000
21
108.000
31
0.0
0
TEXT
8
TEXT_SMALL
10
60.000
20
117.000
30
0.0
40
2.400
1
6N137
72
1
73
2
11
60.000
21
117.000
31
0.0
0
LINE
8
WIRE_TRIG
10
24.000
20
117.000
30
0.0
11
38.000
21
117.000
31
0.0
0
LINE
8
WIRE_TRIG
10
82.000
20
117.000
30
0.0
11
96.000
21
117.000
31
0.0
0
LINE
8
WIRE_TRIG
10
96.000
20
117.000
30
0.0
11
93.800
21
117.990
31
0.0
0
LINE
8
WIRE_TRIG
10
96.000
20
117.000
30
0.0
11
93.800
21
116.010
31
0.0
0
TEXT
8
TEXT_SMALL
10
24.000
20
120.500
30
0.0
40
2.300
1
HPC4L
0
TEXT
8
TEXT_SMALL
10
84.000
20
120.500
30
0.0
40
2.300
1
CAMERA
0
TEXT
8
TEXT_SMALL
10
26.000
20
100.000
30
0.0
40
2.300
1
HIGH SPEED OPTO ONLY (>=10 Mbps). STANDARD OPTO IS TOO SLOW.
0
LINE
8
NOTE
10
196.000
20
96.000
30
0.0
11
378.000
21
96.000
31
0.0
0
LINE
8
NOTE
10
378.000
20
96.000
30
0.0
11
378.000
21
152.000
31
0.0
0
LINE
8
NOTE
10
378.000
20
152.000
30
0.0
11
196.000
21
152.000
31
0.0
0
LINE
8
NOTE
10
196.000
20
152.000
30
0.0
11
196.000
21
96.000
31
0.0
0
LINE
8
NOTE
10
196.000
20
145.000
30
0.0
11
378.000
21
145.000
31
0.0
0
TEXT
8
NOTE
10
198.500
20
147.000
30
0.0
40
2.800
1
TRIGGER PARAMETERS
0
TEXT
8
TEXT_SMALL
10
200.000
20
138.000
30
0.0
40
2.300
1
TRIGGER PITCH        5.0 um   (= pixel pitch / magnification)
0
TEXT
8
TEXT_SMALL
10
200.000
20
132.400
30
0.0
40
2.300
1
UPP  (1 count)       0.1 um   -> PITCH = 50 COUNTS  (integer, exact)
0
TEXT
8
TEXT_SMALL
10
200.000
20
126.800
30
0.0
40
2.300
1
ENC INPUT METHOD     A/B PHASE x4  (AxcSignalSetEncInputMethod 0x03)
0
TEXT
8
TEXT_SMALL
10
200.000
20
121.200
30
0.0
40
2.300
1
TRIGGER FUNCTION     PERIODIC MODE 0x03  (AxcTriggerSetFunction)
0
TEXT
8
TEXT_SMALL
10
200.000
20
115.600
30
0.0
40
2.300
1
PULSE WIDTH          2.0 us   (camera minimum 1 us)
0
TEXT
8
TEXT_SMALL
10
200.000
20
110.000
30
0.0
40
2.300
1
OUTPUT LEVEL         HIGH ACTIVE -> camera trigger = RISING EDGE
0
TEXT
8
TEXT_SMALL
10
200.000
20
104.400
30
0.0
40
2.300
1
MAX SPEED            v_max = camera line rate x 5.0 um
0
LINE
8
NOTE
10
22.000
20
20.000
30
0.0
11
378.000
21
20.000
31
0.0
0
LINE
8
NOTE
10
378.000
20
20.000
30
0.0
11
378.000
21
73.000
31
0.0
0
LINE
8
NOTE
10
378.000
20
73.000
30
0.0
11
22.000
21
73.000
31
0.0
0
LINE
8
NOTE
10
22.000
20
73.000
30
0.0
11
22.000
21
20.000
31
0.0
0
LINE
8
NOTE
10
22.000
20
66.000
30
0.0
11
378.000
21
66.000
31
0.0
0
TEXT
8
NOTE
10
24.500
20
68.000
30
0.0
40
2.800
1
NOTES
0
TEXT
8
TEXT_SMALL
10
24.500
20
61.000
30
0.0
40
2.300
1
1. TRIGGER MUST COME FROM THE PULSE REGEN OUTPUT (ACTUAL POSITION). USING THE COMMAND PULSE TRAIN
0
TEXT
8
TEXT_SMALL
10
24.500
20
56.000
30
0.0
40
2.300
1
   IGNORES FOLLOWING ERROR AND SETTLING, AND DEFEATS THE PURPOSE OF POSITION SYNCHRONISED TRIGGERING.
0
TEXT
8
TEXT_SMALL
10
24.500
20
51.000
30
0.0
40
2.300
1
2. SET THE DRIVER PULSE REGEN SOURCE TO THE EXTERNAL SCALE, NOT THE MOTOR ENCODER.
0
TEXT
8
TEXT_SMALL
10
24.500
20
46.000
30
0.0
40
2.300
1
3. SIO-HPC4 HAS NO DISTANCE-PERIODIC TRIGGER MODE. USE AxcTriggerSetFunction(ch,0x03) PERIODIC MODE
0
TEXT
8
TEXT_SMALL
10
24.500
20
41.000
30
0.0
40
2.300
1
   WITH AxcTriggerSetBlock(ch, start, end, pitch). PATTERN MODE IS A FREQUENCY TIMER - DO NOT USE.
0
TEXT
8
TEXT_SMALL
10
24.500
20
36.000
30
0.0
40
2.300
1
4. PERIODIC MODE USES NO BUFFER : TRIGGER COUNT IS UNLIMITED (tens of thousands per scan is fine).
0
TEXT
8
TEXT_SMALL
10
24.500
20
31.000
30
0.0
40
2.300
1
5. SERIES RESISTOR 33-47R AT THE SOURCE IF CABLE EXCEEDS 1 m. RINGING THAT CROSSES THE INPUT
0
TEXT
8
TEXT_SMALL
10
24.500
20
26.000
30
0.0
40
2.300
1
   THRESHOLD WILL BE COUNTED AS EXTRA TRIGGERS.
0
TEXT
8
TEXT_SMALL
10
24.500
20
21.000
30
0.0
40
2.300
1
6. VERIFY : CLEAR TRIGGER COUNT, SCAN 200 mm, READ COUNT. EXPECT 40000 (= 200 mm / 5 um).
0
ENDSEC
0
EOF
