0
SECTION
2
HEADER
9
$ACADVER
1
AC1009
9
$INSBASE
10
0.0
20
0.0
30
0.0
9
$EXTMIN
10
0.0
20
0.0
30
0.0
9
$EXTMAX
10
420.0
20
297.0
30
0.0
9
$LIMMIN
10
0.0
20
0.0
9
$LIMMAX
10
420.0
20
297.0
9
$LUNITS
70
2
9
$INSUNITS
70
4
0
ENDSEC
0
SECTION
2
TABLES
0
TABLE
2
LTYPE
70
1
0
LTYPE
2
CONTINUOUS
70
0
3
Solid line
72
65
73
0
40
0.0
0
ENDTAB
0
TABLE
2
LAYER
70
12
0
LAYER
2
BORDER
70
0
62
7
6
CONTINUOUS
0
LAYER
2
TITLE
70
0
62
7
6
CONTINUOUS
0
LAYER
2
COMPONENT
70
0
62
5
6
CONTINUOUS
0
LAYER
2
TERMINAL
70
0
62
7
6
CONTINUOUS
0
LAYER
2
WIRE_PWR
70
0
62
1
6
CONTINUOUS
0
LAYER
2
WIRE_SIG
70
0
62
3
6
CONTINUOUS
0
LAYER
2
WIRE_DIFF
70
0
62
4
6
CONTINUOUS
0
LAYER
2
WIRE_TRIG
70
0
62
6
6
CONTINUOUS
0
LAYER
2
TEXT
70
0
62
7
6
CONTINUOUS
0
LAYER
2
TEXT_SMALL
70
0
62
8
6
CONTINUOUS
0
LAYER
2
NOTE
70
0
62
2
6
CONTINUOUS
0
LAYER
2
DIM
70
0
62
8
6
CONTINUOUS
0
ENDTAB
0
TABLE
2
STYLE
70
1
0
STYLE
2
STANDARD
70
0
40
0.0
41
1.0
50
0.0
71
0
42
2.5
3
txt
4

0
ENDTAB
0
ENDSEC
0
SECTION
2
ENTITIES
0
LINE
8
BORDER
10
10.000
20
10.000
30
0.0
11
410.000
21
10.000
31
0.0
0
LINE
8
BORDER
10
410.000
20
10.000
30
0.0
11
410.000
21
287.000
31
0.0
0
LINE
8
BORDER
10
410.000
20
287.000
30
0.0
11
10.000
21
287.000
31
0.0
0
LINE
8
BORDER
10
10.000
20
287.000
30
0.0
11
10.000
21
10.000
31
0.0
0
LINE
8
BORDER
10
12.000
20
12.000
30
0.0
11
408.000
21
12.000
31
0.0
0
LINE
8
BORDER
10
408.000
20
12.000
30
0.0
11
408.000
21
285.000
31
0.0
0
LINE
8
BORDER
10
408.000
20
285.000
30
0.0
11
12.000
21
285.000
31
0.0
0
LINE
8
BORDER
10
12.000
20
285.000
30
0.0
11
12.000
21
12.000
31
0.0
0
LINE
8
TITLE
10
250.000
20
12.000
30
0.0
11
408.000
21
12.000
31
0.0
0
LINE
8
TITLE
10
408.000
20
12.000
30
0.0
11
408.000
21
56.000
31
0.0
0
LINE
8
TITLE
10
408.000
20
56.000
30
0.0
11
250.000
21
56.000
31
0.0
0
LINE
8
TITLE
10
250.000
20
56.000
30
0.0
11
250.000
21
12.000
31
0.0
0
LINE
8
TITLE
10
250.000
20
23.000
30
0.0
11
408.000
21
23.000
31
0.0
0
LINE
8
TITLE
10
250.000
20
34.000
30
0.0
11
408.000
21
34.000
31
0.0
0
LINE
8
TITLE
10
250.000
20
45.000
30
0.0
11
408.000
21
45.000
31
0.0
0
LINE
8
TITLE
10
350.000
20
12.000
30
0.0
11
350.000
21
45.000
31
0.0
0
TEXT
8
TITLE
10
253.000
20
49.000
30
0.0
40
3.600
1
LINE SCAN INSPECTION  /  1-AXIS ENCODER TRIGGER
0
TEXT
8
TITLE
10
253.000
20
38.000
30
0.0
40
3.200
1
SHEET 2 : X4 COMMAND / STATUS WIRING
0
TEXT
8
TEXT_SMALL
10
253.000
20
28.000
30
0.0
40
2.400
1
PROJECT : SEQApp
0
TEXT
8
TEXT_SMALL
10
253.000
20
17.000
30
0.0
40
2.400
1
DRAWN   : (   )    CHK : (   )
0
TEXT
8
TEXT_SMALL
10
353.000
20
28.000
30
0.0
40
2.400
1
SHEET 2 OF 3
0
TEXT
8
TEXT_SMALL
10
353.000
20
17.000
30
0.0
40
2.400
1
Rev.2   SIZE A3   DATE:(      )
0
LINE
8
COMPONENT
10
24.000
20
96.000
30
0.0
11
110.000
21
96.000
31
0.0
0
LINE
8
COMPONENT
10
110.000
20
96.000
30
0.0
11
110.000
21
272.000
31
0.0
0
LINE
8
COMPONENT
10
110.000
20
272.000
30
0.0
11
24.000
21
272.000
31
0.0
0
LINE
8
COMPONENT
10
24.000
20
272.000
30
0.0
11
24.000
21
96.000
31
0.0
0
LINE
8
COMPONENT
10
24.000
20
265.000
30
0.0
11
110.000
21
265.000
31
0.0
0
TEXT
8
TEXT
10
67.000
20
267.000
30
0.0
40
3.000
1
AJINEXTEK
72
1
73
1
11
67.000
21
267.000
31
0.0
0
TEXT
8
TEXT_SMALL
10
67.000
20
259.000
30
0.0
40
2.400
1
AXM motion board
72
1
73
1
11
67.000
21
259.000
31
0.0
0
TEXT
8
TEXT_SMALL
10
67.000
20
254.000
30
0.0
40
2.400
1
+ AXD digital I/O
72
1
73
1
11
67.000
21
254.000
31
0.0
0
LINE
8
COMPONENT
10
292.000
20
96.000
30
0.0
11
378.000
21
96.000
31
0.0
0
LINE
8
COMPONENT
10
378.000
20
96.000
30
0.0
11
378.000
21
272.000
31
0.0
0
LINE
8
COMPONENT
10
378.000
20
272.000
30
0.0
11
292.000
21
272.000
31
0.0
0
LINE
8
COMPONENT
10
292.000
20
272.000
30
0.0
11
292.000
21
96.000
31
0.0
0
LINE
8
COMPONENT
10
292.000
20
265.000
30
0.0
11
378.000
21
265.000
31
0.0
0
TEXT
8
TEXT
10
335.000
20
267.000
30
0.0
40
3.000
1
MBDLT25SM
72
1
73
1
11
335.000
21
267.000
31
0.0
0
TEXT
8
TEXT_SMALL
10
335.000
20
259.000
30
0.0
40
2.400
1
CONNECTOR  X4
72
1
73
1
11
335.000
21
259.000
31
0.0
0
TEXT
8
TEXT_SMALL
10
335.000
20
254.000
30
0.0
40
2.400
1
50 PIN
72
1
73
1
11
335.000
21
254.000
31
0.0
0
CIRCLE
8
TERMINAL
10
110.000
20
258.000
30
0.0
40
0.900
0
TEXT
8
TEXT_SMALL
10
107.800
20
258.000
30
0.0
40
2.200
1
PULSE OUT +
72
2
73
2
11
107.800
21
258.000
31
0.0
0
CIRCLE
8
TERMINAL
10
292.000
20
258.000
30
0.0
40
0.900
0
TEXT
8
TEXT_SMALL
10
294.200
20
258.000
30
0.0
40
2.200
1
PULS1
72
0
73
2
11
294.200
21
258.000
31
0.0
0
LINE
8
WIRE_DIFF
10
110.000
20
258.000
30
0.0
11
292.000
21
258.000
31
0.0
0
LINE
8
WIRE_DIFF
10
288.000
20
258.000
30
0.0
11
285.800
21
258.990
31
0.0
0
LINE
8
WIRE_DIFF
10
288.000
20
258.000
30
0.0
11
285.800
21
257.010
31
0.0
0
LINE
8
DIM
10
258.000
20
254.800
30
0.0
11
284.000
21
254.800
31
0.0
0
LINE
8
DIM
10
284.000
20
254.800
30
0.0
11
284.000
21
261.200
31
0.0
0
LINE
8
DIM
10
284.000
20
261.200
30
0.0
11
258.000
21
261.200
31
0.0
0
LINE
8
DIM
10
258.000
20
261.200
30
0.0
11
258.000
21
254.800
31
0.0
0
TEXT
8
TEXT_SMALL
10
271.000
20
258.000
30
0.0
40
2.300
1
X4-__
72
1
73
2
11
271.000
21
258.000
31
0.0
0
CIRCLE
8
TERMINAL
10
110.000
20
247.500
30
0.0
40
0.900
0
TEXT
8
TEXT_SMALL
10
107.800
20
247.500
30
0.0
40
2.200
1
PULSE OUT -
72
2
73
2
11
107.800
21
247.500
31
0.0
0
CIRCLE
8
TERMINAL
10
292.000
20
247.500
30
0.0
40
0.900
0
TEXT
8
TEXT_SMALL
10
294.200
20
247.500
30
0.0
40
2.200
1
PULS2
72
0
73
2
11
294.200
21
247.500
31
0.0
0
LINE
8
WIRE_DIFF
10
110.000
20
247.500
30
0.0
11
292.000
21
247.500
31
0.0
0
LINE
8
WIRE_DIFF
10
288.000
20
247.500
30
0.0
11
285.800
21
248.490
31
0.0
0
LINE
8
WIRE_DIFF
10
288.000
20
247.500
30
0.0
11
285.800
21
246.510
31
0.0
0
LINE
8
DIM
10
258.000
20
244.300
30
0.0
11
284.000
21
244.300
31
0.0
0
LINE
8
DIM
10
284.000
20
244.300
30
0.0
11
284.000
21
250.700
31
0.0
0
LINE
8
DIM
10
284.000
20
250.700
30
0.0
11
258.000
21
250.700
31
0.0
0
LINE
8
DIM
10
258.000
20
250.700
30
0.0
11
258.000
21
244.300
31
0.0
0
TEXT
8
TEXT_SMALL
10
271.000
20
247.500
30
0.0
40
2.300
1
X4-__
72
1
73
2
11
271.000
21
247.500
31
0.0
0
CIRCLE
8
TERMINAL
10
110.000
20
237.000
30
0.0
40
0.900
0
TEXT
8
TEXT_SMALL
10
107.800
20
237.000
30
0.0
40
2.200
1
DIR OUT +
72
2
73
2
11
107.800
21
237.000
31
0.0
0
CIRCLE
8
TERMINAL
10
292.000
20
237.000
30
0.0
40
0.900
0
TEXT
8
TEXT_SMALL
10
294.200
20
237.000
30
0.0
40
2.200
1
SIGN1
72
0
73
2
11
294.200
21
237.000
31
0.0
0
LINE
8
WIRE_DIFF
10
110.000
20
237.000
30
0.0
11
292.000
21
237.000
31
0.0
0
LINE
8
WIRE_DIFF
10
288.000
20
237.000
30
0.0
11
285.800
21
237.990
31
0.0
0
LINE
8
WIRE_DIFF
10
288.000
20
237.000
30
0.0
11
285.800
21
236.010
31
0.0
0
LINE
8
DIM
10
258.000
20
233.800
30
0.0
11
284.000
21
233.800
31
0.0
0
LINE
8
DIM
10
284.000
20
233.800
30
0.0
11
284.000
21
240.200
31
0.0
0
LINE
8
DIM
10
284.000
20
240.200
30
0.0
11
258.000
21
240.200
31
0.0
0
LINE
8
DIM
10
258.000
20
240.200
30
0.0
11
258.000
21
233.800
31
0.0
0
TEXT
8
TEXT_SMALL
10
271.000
20
237.000
30
0.0
40
2.300
1
X4-__
72
1
73
2
11
271.000
21
237.000
31
0.0
0
CIRCLE
8
TERMINAL
10
110.000
20
226.500
30
0.0
40
0.900
0
TEXT
8
TEXT_SMALL
10
107.800
20
226.500
30
0.0
40
2.200
1
DIR OUT -
72
2
73
2
11
107.800
21
226.500
31
0.0
0
CIRCLE
8
TERMINAL
10
292.000
20
226.500
30
0.0
40
0.900
0
TEXT
8
TEXT_SMALL
10
294.200
20
226.500
30
0.0
40
2.200
1
SIGN2
72
0
73
2
11
294.200
21
226.500
31
0.0
0
LINE
8
WIRE_DIFF
10
110.000
20
226.500
30
0.0
11
292.000
21
226.500
31
0.0
0
LINE
8
WIRE_DIFF
10
288.000
20
226.500
30
0.0
11
285.800
21
227.490
31
0.0
0
LINE
8
WIRE_DIFF
10
288.000
20
226.500
30
0.0
11
285.800
21
225.510
31
0.0
0
LINE
8
DIM
10
258.000
20
223.300
30
0.0
11
284.000
21
223.300
31
0.0
0
LINE
8
DIM
10
284.000
20
223.300
30
0.0
11
284.000
21
229.700
31
0.0
0
LINE
8
DIM
10
284.000
20
229.700
30
0.0
11
258.000
21
229.700
31
0.0
0
LINE
8
DIM
10
258.000
20
229.700
30
0.0
11
258.000
21
223.300
31
0.0
0
TEXT
8
TEXT_SMALL
10
271.000
20
226.500
30
0.0
40
2.300
1
X4-__
72
1
73
2
11
271.000
21
226.500
31
0.0
0
CIRCLE
8
TERMINAL
10
110.000
20
216.000
30
0.0
40
0.900
0
TEXT
8
TEXT_SMALL
10
107.800
20
216.000
30
0.0
40
2.200
1
SERVO ON
72
2
73
2
11
107.800
21
216.000
31
0.0
0
CIRCLE
8
TERMINAL
10
292.000
20
216.000
30
0.0
40
0.900
0
TEXT
8
TEXT_SMALL
10
294.200
20
216.000
30
0.0
40
2.200
1
SRV-ON
72
0
73
2
11
294.200
21
216.000
31
0.0
0
LINE
8
WIRE_SIG
10
110.000
20
216.000
30
0.0
11
292.000
21
216.000
31
0.0
0
LINE
8
WIRE_SIG
10
288.000
20
216.000
30
0.0
11
285.800
21
216.990
31
0.0
0
LINE
8
WIRE_SIG
10
288.000
20
216.000
30
0.0
11
285.800
21
215.010
31
0.0
0
LINE
8
DIM
10
258.000
20
212.800
30
0.0
11
284.000
21
212.800
31
0.0
0
LINE
8
DIM
10
284.000
20
212.800
30
0.0
11
284.000
21
219.200
31
0.0
0
LINE
8
DIM
10
284.000
20
219.200
30
0.0
11
258.000
21
219.200
31
0.0
0
LINE
8
DIM
10
258.000
20
219.200
30
0.0
11
258.000
21
212.800
31
0.0
0
TEXT
8
TEXT_SMALL
10
271.000
20
216.000
30
0.0
40
2.300
1
X4-__
72
1
73
2
11
271.000
21
216.000
31
0.0
0
CIRCLE
8
TERMINAL
10
110.000
20
205.500
30
0.0
40
0.900
0
TEXT
8
TEXT_SMALL
10
107.800
20
205.500
30
0.0
40
2.200
1
ALARM CLEAR
72
2
73
2
11
107.800
21
205.500
31
0.0
0
CIRCLE
8
TERMINAL
10
292.000
20
205.500
30
0.0
40
0.900
0
TEXT
8
TEXT_SMALL
10
294.200
20
205.500
30
0.0
40
2.200
1
A-CLR
72
0
73
2
11
294.200
21
205.500
31
0.0
0
LINE
8
WIRE_SIG
10
110.000
20
205.500
30
0.0
11
292.000
21
205.500
31
0.0
0
LINE
8
WIRE_SIG
10
288.000
20
205.500
30
0.0
11
285.800
21
206.490
31
0.0
0
LINE
8
WIRE_SIG
10
288.000
20
205.500
30
0.0
11
285.800
21
204.510
31
0.0
0
LINE
8
DIM
10
258.000
20
202.300
30
0.0
11
284.000
21
202.300
31
0.0
0
LINE
8
DIM
10
284.000
20
202.300
30
0.0
11
284.000
21
208.700
31
0.0
0
LINE
8
DIM
10
284.000
20
208.700
30
0.0
11
258.000
21
208.700
31
0.0
0
LINE
8
DIM
10
258.000
20
208.700
30
0.0
11
258.000
21
202.300
31
0.0
0
TEXT
8
TEXT_SMALL
10
271.000
20
205.500
30
0.0
40
2.300
1
X4-__
72
1
73
2
11
271.000
21
205.500
31
0.0
0
CIRCLE
8
TERMINAL
10
110.000
20
195.000
30
0.0
40
0.900
0
TEXT
8
TEXT_SMALL
10
107.800
20
195.000
30
0.0
40
2.200
1
DEV CTR CLEAR
72
2
73
2
11
107.800
21
195.000
31
0.0
0
CIRCLE
8
TERMINAL
10
292.000
20
195.000
30
0.0
40
0.900
0
TEXT
8
TEXT_SMALL
10
294.200
20
195.000
30
0.0
40
2.200
1
CL
72
0
73
2
11
294.200
21
195.000
31
0.0
0
LINE
8
WIRE_SIG
10
110.000
20
195.000
30
0.0
11
292.000
21
195.000
31
0.0
0
LINE
8
WIRE_SIG
10
288.000
20
195.000
30
0.0
11
285.800
21
195.990
31
0.0
0
LINE
8
WIRE_SIG
10
288.000
20
195.000
30
0.0
11
285.800
21
194.010
31
0.0
0
LINE
8
DIM
10
258.000
20
191.800
30
0.0
11
284.000
21
191.800
31
0.0
0
LINE
8
DIM
10
284.000
20
191.800
30
0.0
11
284.000
21
198.200
31
0.0
0
LINE
8
DIM
10
284.000
20
198.200
30
0.0
11
258.000
21
198.200
31
0.0
0
LINE
8
DIM
10
258.000
20
198.200
30
0.0
11
258.000
21
191.800
31
0.0
0
TEXT
8
TEXT_SMALL
10
271.000
20
195.000
30
0.0
40
2.300
1
X4-__
72
1
73
2
11
271.000
21
195.000
31
0.0
0
CIRCLE
8
TERMINAL
10
110.000
20
184.500
30
0.0
40
0.900
0
TEXT
8
TEXT_SMALL
10
107.800
20
184.500
30
0.0
40
2.200
1
OVERTRAVEL +
72
2
73
2
11
107.800
21
184.500
31
0.0
0
CIRCLE
8
TERMINAL
10
292.000
20
184.500
30
0.0
40
0.900
0
TEXT
8
TEXT_SMALL
10
294.200
20
184.500
30
0.0
40
2.200
1
POT
72
0
73
2
11
294.200
21
184.500
31
0.0
0
LINE
8
WIRE_SIG
10
110.000
20
184.500
30
0.0
11
292.000
21
184.500
31
0.0
0
LINE
8
WIRE_SIG
10
288.000
20
184.500
30
0.0
11
285.800
21
185.490
31
0.0
0
LINE
8
WIRE_SIG
10
288.000
20
184.500
30
0.0
11
285.800
21
183.510
31
0.0
0
LINE
8
DIM
10
258.000
20
181.300
30
0.0
11
284.000
21
181.300
31
0.0
0
LINE
8
DIM
10
284.000
20
181.300
30
0.0
11
284.000
21
187.700
31
0.0
0
LINE
8
DIM
10
284.000
20
187.700
30
0.0
11
258.000
21
187.700
31
0.0
0
LINE
8
DIM
10
258.000
20
187.700
30
0.0
11
258.000
21
181.300
31
0.0
0
TEXT
8
TEXT_SMALL
10
271.000
20
184.500
30
0.0
40
2.300
1
X4-__
72
1
73
2
11
271.000
21
184.500
31
0.0
0
CIRCLE
8
TERMINAL
10
110.000
20
174.000
30
0.0
40
0.900
0
TEXT
8
TEXT_SMALL
10
107.800
20
174.000
30
0.0
40
2.200
1
OVERTRAVEL -
72
2
73
2
11
107.800
21
174.000
31
0.0
0
CIRCLE
8
TERMINAL
10
292.000
20
174.000
30
0.0
40
0.900
0
TEXT
8
TEXT_SMALL
10
294.200
20
174.000
30
0.0
40
2.200
1
NOT
72
0
73
2
11
294.200
21
174.000
31
0.0
0
LINE
8
WIRE_SIG
10
110.000
20
174.000
30
0.0
11
292.000
21
174.000
31
0.0
0
LINE
8
WIRE_SIG
10
288.000
20
174.000
30
0.0
11
285.800
21
174.990
31
0.0
0
LINE
8
WIRE_SIG
10
288.000
20
174.000
30
0.0
11
285.800
21
173.010
31
0.0
0
LINE
8
DIM
10
258.000
20
170.800
30
0.0
11
284.000
21
170.800
31
0.0
0
LINE
8
DIM
10
284.000
20
170.800
30
0.0
11
284.000
21
177.200
31
0.0
0
LINE
8
DIM
10
284.000
20
177.200
30
0.0
11
258.000
21
177.200
31
0.0
0
LINE
8
DIM
10
258.000
20
177.200
30
0.0
11
258.000
21
170.800
31
0.0
0
TEXT
8
TEXT_SMALL
10
271.000
20
174.000
30
0.0
40
2.300
1
X4-__
72
1
73
2
11
271.000
21
174.000
31
0.0
0
CIRCLE
8
TERMINAL
10
110.000
20
163.500
30
0.0
40
0.900
0
TEXT
8
TEXT_SMALL
10
107.800
20
163.500
30
0.0
40
2.200
1
ALARM IN
72
2
73
2
11
107.800
21
163.500
31
0.0
0
CIRCLE
8
TERMINAL
10
292.000
20
163.500
30
0.0
40
0.900
0
TEXT
8
TEXT_SMALL
10
294.200
20
163.500
30
0.0
40
2.200
1
ALM+ / ALM-
72
0
73
2
11
294.200
21
163.500
31
0.0
0
LINE
8
WIRE_SIG
10
110.000
20
163.500
30
0.0
11
292.000
21
163.500
31
0.0
0
LINE
8
WIRE_SIG
10
114.000
20
163.500
30
0.0
11
116.200
21
162.510
31
0.0
0
LINE
8
WIRE_SIG
10
114.000
20
163.500
30
0.0
11
116.200
21
164.490
31
0.0
0
LINE
8
DIM
10
258.000
20
160.300
30
0.0
11
284.000
21
160.300
31
0.0
0
LINE
8
DIM
10
284.000
20
160.300
30
0.0
11
284.000
21
166.700
31
0.0
0
LINE
8
DIM
10
284.000
20
166.700
30
0.0
11
258.000
21
166.700
31
0.0
0
LINE
8
DIM
10
258.000
20
166.700
30
0.0
11
258.000
21
160.300
31
0.0
0
TEXT
8
TEXT_SMALL
10
271.000
20
163.500
30
0.0
40
2.300
1
X4-__
72
1
73
2
11
271.000
21
163.500
31
0.0
0
CIRCLE
8
TERMINAL
10
110.000
20
153.000
30
0.0
40
0.900
0
TEXT
8
TEXT_SMALL
10
107.800
20
153.000
30
0.0
40
2.200
1
SERVO READY IN
72
2
73
2
11
107.800
21
153.000
31
0.0
0
CIRCLE
8
TERMINAL
10
292.000
20
153.000
30
0.0
40
0.900
0
TEXT
8
TEXT_SMALL
10
294.200
20
153.000
30
0.0
40
2.200
1
S-RDY+ / -
72
0
73
2
11
294.200
21
153.000
31
0.0
0
LINE
8
WIRE_SIG
10
110.000
20
153.000
30
0.0
11
292.000
21
153.000
31
0.0
0
LINE
8
WIRE_SIG
10
114.000
20
153.000
30
0.0
11
116.200
21
152.010
31
0.0
0
LINE
8
WIRE_SIG
10
114.000
20
153.000
30
0.0
11
116.200
21
153.990
31
0.0
0
LINE
8
DIM
10
258.000
20
149.800
30
0.0
11
284.000
21
149.800
31
0.0
0
LINE
8
DIM
10
284.000
20
149.800
30
0.0
11
284.000
21
156.200
31
0.0
0
LINE
8
DIM
10
284.000
20
156.200
30
0.0
11
258.000
21
156.200
31
0.0
0
LINE
8
DIM
10
258.000
20
156.200
30
0.0
11
258.000
21
149.800
31
0.0
0
TEXT
8
TEXT_SMALL
10
271.000
20
153.000
30
0.0
40
2.300
1
X4-__
72
1
73
2
11
271.000
21
153.000
31
0.0
0
CIRCLE
8
TERMINAL
10
110.000
20
142.500
30
0.0
40
0.900
0
TEXT
8
TEXT_SMALL
10
107.800
20
142.500
30
0.0
40
2.200
1
IN-POSITION IN
72
2
73
2
11
107.800
21
142.500
31
0.0
0
CIRCLE
8
TERMINAL
10
292.000
20
142.500
30
0.0
40
0.900
0
TEXT
8
TEXT_SMALL
10
294.200
20
142.500
30
0.0
40
2.200
1
INP+ / INP-
72
0
73
2
11
294.200
21
142.500
31
0.0
0
LINE
8
WIRE_SIG
10
110.000
20
142.500
30
0.0
11
292.000
21
142.500
31
0.0
0
LINE
8
WIRE_SIG
10
114.000
20
142.500
30
0.0
11
116.200
21
141.510
31
0.0
0
LINE
8
WIRE_SIG
10
114.000
20
142.500
30
0.0
11
116.200
21
143.490
31
0.0
0
LINE
8
DIM
10
258.000
20
139.300
30
0.0
11
284.000
21
139.300
31
0.0
0
LINE
8
DIM
10
284.000
20
139.300
30
0.0
11
284.000
21
145.700
31
0.0
0
LINE
8
DIM
10
284.000
20
145.700
30
0.0
11
258.000
21
145.700
31
0.0
0
LINE
8
DIM
10
258.000
20
145.700
30
0.0
11
258.000
21
139.300
31
0.0
0
TEXT
8
TEXT_SMALL
10
271.000
20
142.500
30
0.0
40
2.300
1
X4-__
72
1
73
2
11
271.000
21
142.500
31
0.0
0
CIRCLE
8
TERMINAL
10
110.000
20
132.000
30
0.0
40
0.900
0
TEXT
8
TEXT_SMALL
10
107.800
20
132.000
30
0.0
40
2.200
1
BRAKE OUT
72
2
73
2
11
107.800
21
132.000
31
0.0
0
CIRCLE
8
TERMINAL
10
292.000
20
132.000
30
0.0
40
0.900
0
TEXT
8
TEXT_SMALL
10
294.200
20
132.000
30
0.0
40
2.200
1
BRK-OFF+ / -
72
0
73
2
11
294.200
21
132.000
31
0.0
0
LINE
8
WIRE_SIG
10
110.000
20
132.000
30
0.0
11
292.000
21
132.000
31
0.0
0
LINE
8
WIRE_SIG
10
114.000
20
132.000
30
0.0
11
116.200
21
131.010
31
0.0
0
LINE
8
WIRE_SIG
10
114.000
20
132.000
30
0.0
11
116.200
21
132.990
31
0.0
0
LINE
8
DIM
10
258.000
20
128.800
30
0.0
11
284.000
21
128.800
31
0.0
0
LINE
8
DIM
10
284.000
20
128.800
30
0.0
11
284.000
21
135.200
31
0.0
0
LINE
8
DIM
10
284.000
20
135.200
30
0.0
11
258.000
21
135.200
31
0.0
0
LINE
8
DIM
10
258.000
20
135.200
30
0.0
11
258.000
21
128.800
31
0.0
0
TEXT
8
TEXT_SMALL
10
271.000
20
132.000
30
0.0
40
2.300
1
X4-__
72
1
73
2
11
271.000
21
132.000
31
0.0
0
CIRCLE
8
TERMINAL
10
110.000
20
121.500
30
0.0
40
0.900
0
TEXT
8
TEXT_SMALL
10
107.800
20
121.500
30
0.0
40
2.200
1
DC24V +
72
2
73
2
11
107.800
21
121.500
31
0.0
0
CIRCLE
8
TERMINAL
10
292.000
20
121.500
30
0.0
40
0.900
0
TEXT
8
TEXT_SMALL
10
294.200
20
121.500
30
0.0
40
2.200
1
COM+
72
0
73
2
11
294.200
21
121.500
31
0.0
0
LINE
8
WIRE_PWR
10
110.000
20
121.500
30
0.0
11
292.000
21
121.500
31
0.0
0
LINE
8
WIRE_PWR
10
288.000
20
121.500
30
0.0
11
285.800
21
122.490
31
0.0
0
LINE
8
WIRE_PWR
10
288.000
20
121.500
30
0.0
11
285.800
21
120.510
31
0.0
0
LINE
8
DIM
10
258.000
20
118.300
30
0.0
11
284.000
21
118.300
31
0.0
0
LINE
8
DIM
10
284.000
20
118.300
30
0.0
11
284.000
21
124.700
31
0.0
0
LINE
8
DIM
10
284.000
20
124.700
30
0.0
11
258.000
21
124.700
31
0.0
0
LINE
8
DIM
10
258.000
20
124.700
30
0.0
11
258.000
21
118.300
31
0.0
0
TEXT
8
TEXT_SMALL
10
271.000
20
121.500
30
0.0
40
2.300
1
X4-__
72
1
73
2
11
271.000
21
121.500
31
0.0
0
CIRCLE
8
TERMINAL
10
110.000
20
111.000
30
0.0
40
0.900
0
TEXT
8
TEXT_SMALL
10
107.800
20
111.000
30
0.0
40
2.200
1
DC24V 0V
72
2
73
2
11
107.800
21
111.000
31
0.0
0
CIRCLE
8
TERMINAL
10
292.000
20
111.000
30
0.0
40
0.900
0
TEXT
8
TEXT_SMALL
10
294.200
20
111.000
30
0.0
40
2.200
1
COM-
72
0
73
2
11
294.200
21
111.000
31
0.0
0
LINE
8
WIRE_PWR
10
110.000
20
111.000
30
0.0
11
292.000
21
111.000
31
0.0
0
LINE
8
WIRE_PWR
10
288.000
20
111.000
30
0.0
11
285.800
21
111.990
31
0.0
0
LINE
8
WIRE_PWR
10
288.000
20
111.000
30
0.0
11
285.800
21
110.010
31
0.0
0
LINE
8
DIM
10
258.000
20
107.800
30
0.0
11
284.000
21
107.800
31
0.0
0
LINE
8
DIM
10
284.000
20
107.800
30
0.0
11
284.000
21
114.200
31
0.0
0
LINE
8
DIM
10
284.000
20
114.200
30
0.0
11
258.000
21
114.200
31
0.0
0
LINE
8
DIM
10
258.000
20
114.200
30
0.0
11
258.000
21
107.800
31
0.0
0
TEXT
8
TEXT_SMALL
10
271.000
20
111.000
30
0.0
40
2.300
1
X4-__
72
1
73
2
11
271.000
21
111.000
31
0.0
0
TEXT
8
TEXT
10
201.000
20
268.000
30
0.0
40
3.000
1
SIGNAL
72
1
73
2
11
201.000
21
268.000
31
0.0
0
TEXT
8
TEXT_SMALL
10
271.000
20
268.000
30
0.0
40
2.400
1
PIN (TBD)
72
1
73
2
11
271.000
21
268.000
31
0.0
0
LINE
8
NOTE
10
24.000
20
20.000
30
0.0
11
378.000
21
20.000
31
0.0
0
LINE
8
NOTE
10
378.000
20
20.000
30
0.0
11
378.000
21
78.000
31
0.0
0
LINE
8
NOTE
10
378.000
20
78.000
30
0.0
11
24.000
21
78.000
31
0.0
0
LINE
8
NOTE
10
24.000
20
78.000
30
0.0
11
24.000
21
20.000
31
0.0
0
LINE
8
NOTE
10
24.000
20
71.000
30
0.0
11
378.000
21
71.000
31
0.0
0
TEXT
8
NOTE
10
26.500
20
73.000
30
0.0
40
2.800
1
NOTES
0
TEXT
8
TEXT_SMALL
10
26.500
20
66.000
30
0.0
40
2.300
1
1. PIN NUMBER COLUMN IS INTENTIONALLY LEFT BLANK. THE X4 PIN ASSIGNMENT WAS NOT VERIFIED AGAINST THE
0
TEXT
8
TEXT_SMALL
10
26.500
20
61.000
30
0.0
40
2.300
1
   MBDLT25SM MANUAL. FILL IN FROM THE OFFICIAL PIN LAYOUT BEFORE HARNESS FABRICATION.
0
TEXT
8
TEXT_SMALL
10
26.500
20
56.000
30
0.0
40
2.300
1
2. COMMAND PULSE : USE LINE DRIVER (DIFFERENTIAL) OUTPUT. SET AxmMotSetPulseOutMethod TO 1-PULSE MODE
0
TEXT
8
TEXT_SMALL
10
26.500
20
51.000
30
0.0
40
2.300
1
   (PULSE + DIR, uMethod 0..3) AND MATCH DRIVER Pr0.05..Pr0.07.
0
TEXT
8
TEXT_SMALL
10
26.500
20
46.000
30
0.0
40
2.300
1
3. ELECTRONIC GEAR (Pr0.08..Pr0.10) SET SO THAT ONE COMMAND PULSE = 0.5 um OF TRAVEL.
0
TEXT
8
TEXT_SMALL
10
26.500
20
41.000
30
0.0
40
2.300
1
   AT 500 mm/s THIS GIVES 1.0 Mpps, WELL INSIDE THE 4 Mpps DRIVER COMMAND INPUT LIMIT.
0
TEXT
8
TEXT_SMALL
10
26.500
20
36.000
30
0.0
40
2.300
1
4. STATUS OUTPUTS (ALM / S-RDY / INP / BRK-OFF) ARE OPTO-ISOLATED PAIRS - OBSERVE POLARITY.
0
TEXT
8
TEXT_SMALL
10
26.500
20
31.000
30
0.0
40
2.300
1
5. HARNESS : 50 PIN CRIMP CONNECTOR. SHIELDED TWISTED PAIR FOR PULS / SIGN PAIRS,
0
TEXT
8
TEXT_SMALL
10
26.500
20
26.000
30
0.0
40
2.300
1
   SHIELD GROUNDED AT THE DRIVER END ONLY. ROUTE CLEAR OF U/V/W MOTOR POWER.
0
TEXT
8
TEXT_SMALL
10
26.500
20
21.000
30
0.0
40
2.300
1
6. OVERTRAVEL / EMG MAY ALSO BE HARD-WIRED TO THE SAFETY CIRCUIT - SEE MACHINE SAFETY DRAWING.
0
ENDSEC
0
EOF
